<?xml version="1.0" encoding="UTF-8"?> <svg xmlns="http://www.w3.org/2000/svg" xmlns:xlink="http://www.w3.org/1999/xlink" id="b3d9b4e8-33bf-4f17-ad5e-ce30ff7e4a25" data-name="Layer 1" viewBox="0 0 537.38 111.33"><defs><style>.e80043f1-c0ea-41e1-9b65-cc2971890b2c{fill:#241e38;}.bbf3b7b4-8a60-4562-bbf1-16bb5dd6f7a2{fill:url(#af4c1b63-ce51-4fed-a57e-cacf7288f83b);}.fe5220a4-e983-40ac-909c-2948b616ef3d{fill:url(#bdd8cf47-d983-48ee-9004-c918c56ab7cc);}</style><linearGradient id="af4c1b63-ce51-4fed-a57e-cacf7288f83b" x1="34.19" y1="100.85" x2="91.11" y2="17.53" gradientUnits="userSpaceOnUse"><stop offset="0" stop-color="#981449"></stop><stop offset="1" stop-color="#e62e4d"></stop></linearGradient><linearGradient id="bdd8cf47-d983-48ee-9004-c918c56ab7cc" x1="28.86" y1="97.21" x2="85.79" y2="13.89" xlink:href="#af4c1b63-ce51-4fed-a57e-cacf7288f83b"></linearGradient></defs><title>Logo-Autodoc</title><path class="e80043f1-c0ea-41e1-9b65-cc2971890b2c" d="M443.87,26.18H429.72A16.23,16.23,0,0,0,413.51,42.4V68.93a16.23,16.23,0,0,0,16.21,16.22h14.16a16.24,16.24,0,0,0,16.21-16.22V42.4A16.24,16.24,0,0,0,443.87,26.18Zm3.25,43.14a6.45,6.45,0,0,1-6.44,6.44h-7.76a6.45,6.45,0,0,1-6.44-6.44V42a6.45,6.45,0,0,1,6.44-6.44h7.76A6.45,6.45,0,0,1,447.12,42Z"></path><path class="e80043f1-c0ea-41e1-9b65-cc2971890b2c" d="M331.09,26.18H316.94A16.24,16.24,0,0,0,300.72,42.4V68.93a16.24,16.24,0,0,0,16.22,16.22h14.15A16.23,16.23,0,0,0,347.3,68.93V42.4A16.23,16.23,0,0,0,331.09,26.18Zm3.25,43.14a6.45,6.45,0,0,1-6.45,6.44h-7.76a6.45,6.45,0,0,1-6.44-6.44V42a6.45,6.45,0,0,1,6.44-6.44h7.76A6.45,6.45,0,0,1,334.34,42Z"></path><path class="e80043f1-c0ea-41e1-9b65-cc2971890b2c" d="M490.42,35.57h19.47l3-3.36v-6H487.22A16.23,16.23,0,0,0,471,42.4V68.93a16.23,16.23,0,0,0,16.21,16.22h25.66V75.76H490.42A6.44,6.44,0,0,1,484,69.32V42A6.45,6.45,0,0,1,490.42,35.57Z"></path><path class="e80043f1-c0ea-41e1-9b65-cc2971890b2c" d="M387.06,26.18H358v59h29a16.24,16.24,0,0,0,16.22-16.22V42.4A16.24,16.24,0,0,0,387.06,26.18Zm3.25,43.14a6.45,6.45,0,0,1-6.45,6.44H371V35.57h12.87A6.45,6.45,0,0,1,390.31,42Z"></path><polygon class="e80043f1-c0ea-41e1-9b65-cc2971890b2c" points="265.62 85.15 278.59 85.15 278.59 35.57 292.85 35.57 295.84 32.21 295.84 26.18 248.37 26.18 248.37 35.57 265.62 35.57 265.62 85.15"></polygon><path class="e80043f1-c0ea-41e1-9b65-cc2971890b2c" d="M213.22,75.76a6.45,6.45,0,0,1-6.44-6.44V26.18h-13V68.93A16.24,16.24,0,0,0,210,85.15h14.15a16.23,16.23,0,0,0,16.21-16.22V26.18h-13V69.32A6.45,6.45,0,0,1,221,75.76Z"></path><path class="e80043f1-c0ea-41e1-9b65-cc2971890b2c" d="M150.31,26.18,133,80.66v4.49h13.27l3-12.78h21.15l3,12.78h13.28V80.66l-17.3-54.48ZM151.85,63l6.4-25.6h3.19l6.4,25.6Z"></path><path class="bbf3b7b4-8a60-4562-bbf1-16bb5dd6f7a2" d="M106.57,55.67A49.34,49.34,0,0,0,57.25,6.34V55.67Z"></path><path class="fe5220a4-e983-40ac-909c-2948b616ef3d" d="M82,66.07A26.84,26.84,0,1,1,46.84,30.92V7.45a49.32,49.32,0,1,0,58.62,58.62Z"></path><path class="e80043f1-c0ea-41e1-9b65-cc2971890b2c" d="M522.48,33.72v-5.1h2.4c.81,0,1.24.43,1.24,1.09v.95a.93.93,0,0,1-.51.84,1.41,1.41,0,0,1-.51.18l1.21,1.68v.36h-.77l-1.24-2h-1v2Zm.8-2.55h1.53a.5.5,0,0,0,.51-.51v-.95a.5.5,0,0,0-.51-.51h-1.53Z"></path><path class="e80043f1-c0ea-41e1-9b65-cc2971890b2c" d="M524.12,36.52a5.34,5.34,0,1,1,5.34-5.34A5.35,5.35,0,0,1,524.12,36.52Zm0-9.86a4.52,4.52,0,1,0,4.52,4.52A4.53,4.53,0,0,0,524.12,26.66Z"></path></svg> 